<svg width="125" height="16" viewBox="0 0 125 16" fill="none" xmlns="http://www.w3.org/2000/svg">
<g id="rate">
<path id="star" d="M69.6202 6.52917L65.3687 10.0511L66.6195 15.7751L62.4885 12.3171L58.0915 15.5912L59.7903 9.93115L55.8242 6.2312L61.0047 6.19116L62.9513 0.630249L64.4545 6.26624L69.6202 6.52917Z" fill="#FFC600"/>
<path id="star copy 3" d="M42.1693 6.52917L37.9178 10.0511L39.1686 15.7751L35.0376 12.3171L30.6406 15.5912L32.3394 9.93115L28.3733 6.2312L33.5538 6.19116L35.5004 0.630249L37.0036 6.26624L42.1693 6.52917Z" fill="#FFC600"/>
<path id="star copy 4" d="M14.7203 6.52917L10.4688 10.0511L11.7196 15.7751L7.58864 12.3171L3.19161 15.5912L4.8904 9.93115L0.924316 6.2312L6.10478 6.19116L8.05144 0.630249L9.55463 6.26624L14.7203 6.52917Z" fill="#FFC600"/>
<path id="star copy" d="M97.0697 6.52917L92.8182 10.0511L94.069 15.7751L89.938 12.3171L85.541 15.5912L87.2398 9.93115L83.2737 6.2312L88.4542 6.19116L90.4008 0.630249L91.904 6.26624L97.0697 6.52917Z" fill="#FFC600"/>
<path id="star copy 2" d="M124.521 6.52917L120.269 10.0511L121.52 15.7751L117.389 12.3171L112.992 15.5912L114.691 9.93115L110.725 6.2312L115.905 6.19116L117.852 0.630249L119.355 6.26624L124.521 6.52917Z" fill="#C1C8CE"/>
</g>
</svg>
